<svg xmlns="http://www.w3.org/2000/svg" xml:space="preserve" viewBox="0 0 300 400">
  <g id="pokedex-body-main">
    <rect width='300' height='400' ry="10" style="fill:rgba(220,10,45,255);stroke-width:2;stroke:rgb(0,0,0)" />
    <circle cx="40" cy="40" r="33" stroke="black" stroke-width="1" fill="rgba(221,213,220,255)" />
    <circle cx="40" cy="40" r="30" stroke="black" stroke-width="1" fill="blue" />
    <circle cx="30" cy="30" r="10" fill="white" fill-opacity="0.9" />
    <circle cx="23" cy="45" r="5" fill="white" fill-opacity="0.9" />
    <circle cx="90" cy="15" r="8" stroke="black" stroke-width="1.5" fill="red" />
    <circle cx="115" cy="15" r="8" stroke="black" stroke-width="1.5" fill="orange" />
    <circle cx="140" cy="15" r="8" stroke="black" stroke-width="1.5" fill="green" />
    <path d="M0,80 L100,80 M100,80 S125 80 150,60 M150,60 S175 40 200,40 M200,40 L300,40" stroke="black" fill="none" stroke-width="1" />
  </g>
  <g id="pokedex-body-inner-frame">
    <path d="M10,85 L100,85 M100,85 S125 85 150,65 M150,65 S175 45 200,45 M200,45 L290,45" stroke="black" fill="none" stroke-width="1" />
    <path d="M10,85 S5 85 5,90 L5,390 M5,390 S5 395 10,395 L290,395 M290,395 S295 395 295,390 L295,50 M295,50 S295 45 290,45" stroke="black" fill="none" stroke-width="1" />
  </g>
  <g id="pokedex-body-inner-panel">
    <rect width="200" height="100" y="200" x="30" ry="30" fill="rgba(222,222,222,255)" stroke="black" stroke-width="1" />
    <rect width="220" height="150" y="90" x="30" ry="3" fill="rgba(222,222,222,255)" stroke="black" stroke-width="1" />
    <rect width="220" height="150" y="95" x="30" ry="3" fill="rgba(222,222,222,255)" />
    <rect width="190" height="150" y="150" x="60" ry="3" fill="rgba(222,222,222,255)" stroke="black" stroke-width="1" />
    <rect width="190" height="150" y="150" x="55" ry="3" fill="rgba(222,222,222,255)" />
    <rect width="200" height="50" y="110" x="50" fill="rgba(222,222,222,255)" />
    <rect width="170" height="140" y="115" x="55" ry="3" fill="rgba(36,36,36,255)" />
    <line x1="30" y1="95" x2="30" y2="270" stroke="black" fill="none" stroke-width="1" />
    <line x1="250" y1="95" x2="250" y2="270" stroke="black" fill="none" stroke-width="1" />
    <line x1="245" y1="300" x2="55" y2="300" stroke="black" fill="none" stroke-width="1" />
    <circle cx="65" cy="277.5" r="8" stroke="black" stroke-width="1.5" fill="red" />
    <circle cx="125" cy="102.5" r="3" stroke="black" stroke-width="1.5" fill="red" />
    <circle cx="155" cy="102.5" r="3" stroke="black" stroke-width="1.5" fill="red" />
    <rect width="30" height="2" y="265" x="195" ry="1" />
    <rect width="30" height="2" y="273.33" x="195" ry="1" />
    <rect width="30" height="2" y="281.66" x="195" ry="1" />
    <rect width="30" height="2" y="290" x="195" ry="1" />
  </g>
  <g id="pokedex-body-dpad">
    <rect width="20" height="60" y="317.5" x="200" ry="2" fill="rgba(2,49,41,255)" stroke="black" stroke-width="1" />
    <rect width="60" height="20" y="337.5" x="180" ry="2" fill="rgba(2,49,41,255)" stroke="black" stroke-width="1" />
    <rect width="20" height="40" y="327.5" x="200" ry="2" fill="rgba(2,49,41,255)" />
    <circle cx="210" cy="347.5" r="3" fill="rgba(2,49,41,255)" stroke="black" />
    <line x1="200" y1="320" x2="200" y2="337.5" stroke="black" fill="none" stroke-width="1" />
    <line x1="220" y1="320" x2="220" y2="337.5" stroke="black" fill="none" stroke-width="1" />
    <line x1="200" y1="357.5" x2="200" y2="367.5" stroke="black" fill="none" stroke-width="1" />
    <line x1="220" y1="357.5" x2="220" y2="367.5" stroke="black" fill="none" stroke-width="1" />
  </g>
  <g id="pokedex-body-bottom-screen">
    <rect width="85" height="40" y="327.5" x="55" ry="2" fill="rgba(81,173,96,255)" stroke="black" stroke-width="1" />
  </g>
  <g id="pokedex-body-bottom-buttons">
    <rect width="34" height="4" y="312.5" x="55" ry="3" fill="rgba(230,12,54,255)" stroke="black" stroke-width="1" />
    <rect width="34" height="4" y="312.5" x="105" ry="3" fill="rgba(9,98,139,255)" stroke="black" stroke-width="1" />
  </g>
  <g id="pokedex-body-bottom-circle">
    <circle cx="30" cy="327.5" r="14" fill="rgba(2,49,41,255)" stroke="black" stroke-width="1" />
  </g>
</svg>